<?xml version="1.0" encoding="UTF-8"?>
<svg version="1.1" xmlns="http://www.w3.org/2000/svg" width="1024" height="1024">
<path d="M0 0 C337.92 0 675.84 0 1024 0 C1024 337.92 1024 675.84 1024 1024 C686.08 1024 348.16 1024 0 1024 C0 686.08 0 348.16 0 0 Z " fill="#FEFEFE" transform="translate(0,0)"/>
<path d="M0 0 C7.00684108 0.10757688 11.72848088 1.53110375 17.5 5.4375 C18.14582031 5.87191406 18.79164063 6.30632812 19.45703125 6.75390625 C24.51608647 10.62259553 27.71380197 15.7630454 30.5 21.4375 C30.5 22.0975 30.5 22.7575 30.5 23.4375 C31.675625 23.664375 32.85125 23.89125 34.0625 24.125 C42.04552343 25.89900521 50.49487142 28.28614591 57.70703125 32.16015625 C60.31359618 33.61125374 60.31359618 33.61125374 62.640625 33.33203125 C64.9200908 32.2353975 66.43000649 30.88106812 68.25 29.125 C75.47302503 22.55002208 82.6544734 20.04704185 92.3671875 20.1640625 C100.49955631 20.87387025 107.20288011 25.36315033 112.5 31.4375 C115.9074246 36.77419881 117.41176519 42.09066697 116.5 48.4375 C116.26667969 49.2315625 116.03335937 50.025625 115.79296875 50.84375 C114.24918639 55.88317847 114.24918639 55.88317847 115.75 60.72265625 C116.98163225 62.22768962 118.24915681 63.70390633 119.546875 65.15234375 C126.83714912 73.68196448 128.8928701 84.22423639 128.875 95.125 C128.87556396 95.99914551 128.87612793 96.87329102 128.87670898 97.77392578 C128.76734703 104.26512576 127.76590031 109.61205902 125.47265625 115.7109375 C123.75100105 120.53710349 123.25162184 124.33646223 124.4375 129.3125 C128.36666998 150.94984703 124.54723035 172.62520468 118.5 193.4375 C119.2321875 193.32792969 119.964375 193.21835937 120.71875 193.10546875 C124.64331324 192.53080056 128.57080419 191.97937715 132.5 191.4375 C133.42699707 191.30907715 134.35399414 191.1806543 135.30908203 191.04833984 C168.82746834 186.46058215 168.82746834 186.46058215 178.5 191.4375 C180.5625 193.0625 180.5625 193.0625 181.5 195.4375 C181.92388117 201.45024669 181.28771206 207.32458873 180.3125 213.25 C180.18012939 214.06331787 180.04775879 214.87663574 179.91137695 215.71459961 C178.31269509 225.09395208 176.07338634 234.28142517 173.5 243.4375 C173.30100098 244.15131836 173.10200195 244.86513672 172.89697266 245.60058594 C156.63128047 302.32402357 117.2753077 359.30381872 70.86328125 395.57421875 C68.52162108 397.4204533 66.32609461 399.36427033 64.125 401.375 C60.63404413 404.50631921 57.02132379 407.44518334 53.3125 410.3125 C52.77077148 410.74062988 52.22904297 411.16875977 51.67089844 411.60986328 C48.77044694 413.86172985 45.89842989 415.8215606 42.66015625 417.55859375 C35.86047531 421.31564273 35.86047531 421.31564273 31.6640625 427.60595703 C30.42189277 432.89687688 30.08598056 438.27221487 29.72753906 443.68261719 C27.23046134 473.9154767 14.33218214 503.19905375 -8.5 523.4375 C-24.49862998 536.94545968 -52.95989975 559.77221451 -74.5625 560.9375 C-77.81682237 560.38357279 -78.52912761 559.97582611 -80.5 557.4375 C-81.930198 550.92348896 -79.7489422 546.01871026 -76.4375 540.5625 C-66.25565952 522.52741945 -59.76497539 501.5492001 -59.125 480.75 C-59.05152344 479.10451172 -59.05152344 479.10451172 -58.9765625 477.42578125 C-59.25159334 474.26060514 -59.25159334 474.26060514 -61.76953125 471.99609375 C-64.27079822 470.25723901 -64.27079822 470.25723901 -66.53515625 470.484375 C-67.20417969 470.71640625 -67.87320313 470.9484375 -68.5625 471.1875 C-74.21140362 472.80965138 -79.66608571 472.61518267 -85.5 472.4375 C-85.85191406 473.59765625 -86.20382812 474.7578125 -86.56640625 475.953125 C-91.07674873 490.40358631 -96.86638159 501.46808311 -107.5 512.4375 C-108.09039062 513.11296875 -108.68078125 513.7884375 -109.2890625 514.484375 C-113.44065273 519.05661093 -118.12140955 522.3511531 -123.3125 525.625 C-123.95195557 526.02912109 -124.59141113 526.43324219 -125.25024414 526.84960938 C-134.32282767 532.38258359 -143.91203734 536.1428441 -154.0625 539.1875 C-155.16239258 539.52257568 -156.26228516 539.85765137 -157.39550781 540.20288086 C-166.79095554 543.02086542 -176.25928876 545.5268672 -185.75 548 C-202.90197926 552.47046142 -219.68570396 557.63886435 -236.375 563.625 C-237.2731543 563.94605713 -238.17130859 564.26711426 -239.09667969 564.59790039 C-244.43807359 566.55220434 -249.45965741 568.8003834 -254.5 571.4375 C-252.93208511 567.03559992 -250.6649723 563.18661202 -248.1875 559.25 C-247.75018555 558.55366455 -247.31287109 557.8573291 -246.86230469 557.13989258 C-241.44815498 548.63748312 -235.48087887 540.54563385 -229.5 532.4375 C-228.36154221 530.8844348 -227.22352311 529.33104792 -226.0859375 527.77734375 C-218.13441583 516.93466634 -210.07850652 506.17080018 -201.99536133 495.42602539 C-200.49520495 493.43112356 -198.9972076 491.43461557 -197.5 489.4375 C-198.80195313 489.581875 -200.10390625 489.72625 -201.4453125 489.875 C-203.17185676 490.06266785 -204.89842029 490.25015851 -206.625 490.4375 C-207.4809375 490.53289062 -208.336875 490.62828125 -209.21875 490.7265625 C-213.67022474 491.20595209 -218.01441925 491.55515458 -222.5 491.4375 C-218.15523649 485.35483109 -213.36622174 479.75051393 -208.44360352 474.13598633 C-205.2761759 470.51587735 -202.21688615 466.85062949 -199.25 463.0625 C-183.31066365 443.48993257 -163.9140838 426.514344 -138.5 421.4375 C-136.16745023 421.3770351 -133.83206747 421.36065114 -131.5 421.4375 C-131.603125 420.344375 -131.70625 419.25125 -131.8125 418.125 C-131.8761078 413.03637573 -129.75050525 409.26715138 -127.3984375 404.85546875 C-127.10195312 404.05753906 -126.80546875 403.25960938 -126.5 402.4375 C-127.49 400.9525 -127.49 400.9525 -128.5 399.4375 C-156.8494855 395.99559119 -189.03955377 404.12734684 -214.03515625 417.1171875 C-218.28115471 418.73516662 -220.98793919 418.79222176 -225.5 418.4375 C-228.0625 416.875 -228.0625 416.875 -229.5 414.4375 C-229.15429719 408.84402851 -227.47590627 404.51195916 -225.0625 399.5625 C-224.71123047 398.83071533 -224.35996094 398.09893066 -223.99804688 397.3449707 C-210.87355977 370.53196421 -193.37583401 342.09704582 -166.5 327.4375 C-165.84 327.4375 -165.18 327.4375 -164.5 327.4375 C-164.933125 326.81101562 -165.36625 326.18453125 -165.8125 325.5390625 C-166.369375 324.72179687 -166.92625 323.90453125 -167.5 323.0625 C-168.056875 322.25039063 -168.61375 321.43828125 -169.1875 320.6015625 C-170.5 318.4375 -170.5 318.4375 -170.5 316.4375 C-171.551875 316.540625 -172.60375 316.64375 -173.6875 316.75 C-183.73982945 316.67883307 -192.47999831 311.64789191 -199.46484375 304.75390625 C-204.74854025 298.74002521 -205.94140668 293.8178327 -206.03125 285.85546875 C-205.5 283.4375 -205.5 283.4375 -203.89453125 281.6328125 C-198.02756162 278.70411314 -189.32669469 279.66740644 -183.125 281.4375 C-182.25875 281.7675 -181.3925 282.0975 -180.5 282.4375 C-180.49742187 281.78007812 -180.49484375 281.12265625 -180.4921875 280.4453125 C-179.8885526 265.59589407 -173.68365422 252.55560302 -167.4375 239.3125 C-156.94180177 216.99554994 -153.81832985 196.44681171 -152.38140869 171.91265869 C-150.52045434 140.41364788 -143.62341025 110.7701771 -129.5 82.4375 C-130.22574219 82.17066406 -130.95148438 81.90382813 -131.69921875 81.62890625 C-142.25108254 77.14031705 -150.96750538 68.61687189 -155.80859375 58.26171875 C-158.49848688 51.16465609 -158.81563993 42.75985238 -155.9375 35.6875 C-151.45573937 27.00703731 -144.8156872 21.12261252 -135.890625 17.328125 C-125.99045172 14.72761865 -112.25346765 14.76924855 -102.859375 18.97265625 C-96.21716482 23.09654502 -90.22068005 28.50350536 -86.5 35.4375 C-86.5 36.0975 -86.5 36.7575 -86.5 37.4375 C-86.02175781 37.15777344 -85.54351562 36.87804687 -85.05078125 36.58984375 C-68.22676668 27.45848506 -49.18162152 23.65537838 -30.5 20.4375 C-29.31019531 20.22996094 -28.12039063 20.02242187 -26.89453125 19.80859375 C-22.4372566 19.32131977 -18.04191355 19.33071682 -13.5625 19.375 C-12.68787109 19.37951172 -11.81324219 19.38402344 -10.91210938 19.38867188 C-8.77470953 19.40035166 -6.63734537 19.41828311 -4.5 19.4375 C-4.78439941 18.91655762 -5.06879883 18.39561523 -5.36181641 17.85888672 C-9.04354128 10.86796366 -9.04354128 10.86796366 -8.875 6.5625 C-8.86210937 5.82257813 -8.84921875 5.08265625 -8.8359375 4.3203125 C-7.96775123 -0.54556867 -4.08130448 0.07541541 0 0 Z " fill="#09324C" transform="translate(361.5,225.5625)"/>
<path d="M0 0 C10.48074091 5.03780152 15.34530763 12.96525039 19.5 23.4375 C20.15411865 22.98656982 20.8082373 22.53563965 21.48217773 22.07104492 C28.25404261 17.56145307 34.88434101 14.39389154 42.5625 11.75 C43.65087158 11.3677124 44.73924316 10.9854248 45.8605957 10.59155273 C54.32542387 7.6881696 62.7785549 5.35136601 71.58740234 3.77978516 C73.33032871 3.46786497 75.06614494 3.11685731 76.80078125 2.76171875 C109.09563039 -3.03479263 144.47851382 3.59746622 173.5 18.4375 C170.97002086 21.32271594 168.11445203 22.82749454 164.75 24.625 C153.15409935 31.29718892 147.01275119 41.7375534 143.5 54.4375 C143.12770641 56.09589874 142.7706431 57.75951275 142.5 59.4375 C140.85 59.4375 139.2 59.4375 137.5 59.4375 C137.31566406 58.85484375 137.13132812 58.2721875 136.94140625 57.671875 C132.27400488 44.47868713 122.86847005 33.58889593 110.6015625 26.84375 C97.47737795 20.65920276 81.81518908 18.64228812 67.75 23.125 C65.9794085 23.84728095 64.22629113 24.61494122 62.5 25.4375 C61.71882813 25.788125 60.93765625 26.13875 60.1328125 26.5 C45.94936597 33.56718443 36.79085673 45.87671246 31.5 60.4375 C28.3402085 69.91687451 29.16160728 84.06394455 33.23828125 93.08984375 C33.65464844 93.86457031 34.07101562 94.63929688 34.5 95.4375 C34.94730469 96.30503906 35.39460938 97.17257812 35.85546875 98.06640625 C42.96872671 110.86264243 53.88895005 118.40712063 67.7734375 122.7109375 C81.28248298 126.3107691 93.32500624 124.01037966 106.5 120.4375 C106.53867187 121.41589844 106.53867187 121.41589844 106.578125 122.4140625 C107.03662712 129.47916339 108.47576853 133.58128139 113.75 138.5625 C116.27344707 140.4426769 116.27344707 140.4426769 118.4921875 141.18359375 C120.80992868 142.07078772 122.56477422 142.87149493 124.5 144.4375 C125.59510978 147.09137492 126.1478992 149.67215195 126.734375 152.48046875 C128.46863363 159.17860031 132.48285661 165.85586703 138.5 169.4375 C144.44595981 172.37837429 150.15108051 173.67551358 156.640625 171.828125 C158.63475941 171.10432807 160.56355356 170.30244608 162.5 169.4375 C163.28375 169.128125 164.0675 168.81875 164.875 168.5 C169.08256581 165.74889928 170.96970021 158.03496718 172.5 153.4375 C172.7070719 151.64798975 172.89533766 149.85617847 173.0625 148.0625 C173.48828125 145.55859375 173.48828125 145.55859375 174.5 143.4375 C177.18551155 141.90992046 179.76524552 141.12068975 182.734375 140.28125 C187.91803734 138.69979369 190.57539043 135.97851595 193.375 131.3125 C195.18386709 126.54174528 194.74491136 121.45364751 194.5 116.4375 C195.46679688 116.29054688 196.43359375 116.14359375 197.4296875 115.9921875 C206.37973999 114.49974437 214.56296041 112.51559787 221.140625 105.75 C222.5 104.4375 222.5 104.4375 224.5 104.4375 C228.19701113 122.95237026 224.60765887 142.47756845 219.8125 160.4375 C219.60544434 161.29279297 219.39838867 162.14808594 219.18505859 163.02929688 C218.49808799 165.40360593 217.81296422 167.34259768 216.5 169.4375 C213.57685611 170.99021674 211.63152057 171.70917907 208.5 172.4375 C206.73453433 172.94788651 204.97027809 173.46246874 203.20703125 173.98046875 C202.25795898 174.24520996 201.30888672 174.50995117 200.33105469 174.78271484 C168.72853652 183.60095228 135.92613886 196.72177329 109.2421875 216.0859375 C106.5 217.4375 106.5 217.4375 103.9609375 216.8671875 C101.35413 215.35275647 98.78691941 213.81736443 96.25 212.1875 C88.54787224 207.32705878 80.57426459 202.95114784 72.61035156 198.53808594 C66.91126028 195.37390482 61.28021602 192.144366 55.74291992 188.70361328 C53.39225017 187.37667594 51.02480163 186.38489169 48.5 185.4375 C56.77639937 198.33894608 70.36771117 205.87425392 83.32788086 213.40283203 C90.2490009 217.46864195 96.98099621 221.65899431 101.5 228.4375 C101.75760279 231.13202521 101.58900053 233.72298375 101.5 236.4375 C97.54 235.4475 93.58 234.4575 89.5 233.4375 C91.54577087 236.5061563 93.18770294 238.78135147 96.5 240.4375 C95.5 243.4375 95.5 243.4375 92.8125 245.125 C85.54621203 247.93582745 76.54851461 247.55671788 69.3125 244.875 C55.16073315 238.27393035 43.70450686 227.97557514 32.875 216.9375 C31.96621094 216.0196875 31.05742187 215.101875 30.12109375 214.15625 C27.90935522 211.92123001 25.70247028 209.6816473 23.5 207.4375 C26.17824994 221.97700393 38.11714515 234.68272131 49.5 243.4375 C53.41331724 245.94294927 57.40241361 248.24789628 61.5 250.4375 C58.46323955 254.15753155 55.4706642 257.57240347 51.8125 260.6875 C43.10999523 268.12539605 35.40657496 276.31448837 28.5 285.4375 C28.06429687 285.05078125 27.62859375 284.6640625 27.1796875 284.265625 C20.7026696 278.09677777 20.7026696 278.09677777 12.625 275.1875 C11.92375 275.27 11.2225 275.3525 10.5 275.4375 C10.5 276.4275 10.5 277.4175 10.5 278.4375 C12.03909005 279.96299287 12.03909005 279.96299287 14.0625 281.4375 C22.61169582 288.65513966 28.68441346 299.48720718 29.70703125 310.70947266 C29.84651804 313.22571478 29.91254308 315.7300782 29.9375 318.25 C29.94773193 319.05050781 29.95796387 319.85101562 29.96850586 320.67578125 C29.88964831 325.9697144 28.88124586 329.70658979 26.5 334.4375 C27.29664063 334.53546875 28.09328125 334.6334375 28.9140625 334.734375 C40.5484793 336.37621484 40.5484793 336.37621484 44.5 340.4375 C45 344.0625 45 344.0625 44.5 347.4375 C43.84 348.0975 43.18 348.7575 42.5 349.4375 C37.99953685 349.18747427 35.08211773 347.01995696 31.5 344.4375 C32.61756266 348.30598614 33.52873292 350.72672757 36.5 353.4375 C29.58168686 356.37254194 22.99370647 357.40890639 15.5 356.4375 C9.9776591 353.72477114 7.24799017 350.60409222 5.25390625 344.828125 C4.8508244 343.44964156 4.45391535 342.06934138 4.0625 340.6875 C2.34917421 334.91533984 0.44485349 329.71792695 -2.5 324.4375 C-2.78488281 323.75171875 -3.06976563 323.0659375 -3.36328125 322.359375 C-5.61951141 318.54471783 -9.96976722 317.88604777 -13.98193359 316.48510742 C-26.44213679 312.08265825 -36.03475538 305.70758494 -45.5 296.4375 C-46.12648437 295.84710937 -46.75296875 295.25671875 -47.3984375 294.6484375 C-58.20617057 283.54728181 -61.87915618 269.7662453 -61.87402344 254.7722168 C-61.59183799 239.6740127 -55.28528379 227.60460707 -48.95629883 214.1472168 C-38.76956889 192.35599172 -35.71109491 171.94721917 -34.44851685 148.09683228 C-32.73032094 116.28381933 -26.66549481 84.3457944 -9.1875 57.2109375 C-7.32673525 54.69381564 -7.32673525 54.69381564 -7.5 52.4375 C-8.61117187 51.89222656 -9.72234375 51.34695313 -10.8671875 50.78515625 C-22.32572417 45.03398113 -33.35704092 39.24924935 -38.72265625 26.9140625 C-40.47665072 21.32595952 -40.28213079 16.62226272 -37.9375 11.25 C-30.39545947 -2.08135333 -13.70039794 -4.92789507 0 0 Z " fill="#72CCE8" transform="translate(252.5,252.5625)"/>
<path d="M0 0 C1.47290039 1.55957031 1.47290039 1.55957031 2.84765625 3.578125 C3.36505371 4.32078613 3.88245117 5.06344727 4.41552734 5.82861328 C4.95902832 6.6276709 5.5025293 7.42672852 6.0625 8.25 C11.6538865 16.23746891 17.56037365 23.68137421 24 31 C24.50450684 31.58918213 25.00901367 32.17836426 25.52880859 32.78540039 C38.50633284 47.8615065 52.74849579 61.5195796 69 73 C60.93613488 95.26141487 43.10456364 116.16914591 27.3359375 133.41796875 C26.04685024 134.84286287 24.76432945 136.27413712 23.51171875 137.73120117 C12.51183154 150.52113412 0.40093073 162.73378991 -13 173 C-14.1225375 173.90807447 -15.24212328 174.81980501 -16.359375 175.734375 C-46.67852667 200.4925069 -80.03459934 221.47901384 -115 239 C-115.72300293 239.3707666 -116.44600586 239.7415332 -117.19091797 240.12353516 C-119.01442053 241.05785122 -120.85039906 241.96771381 -122.6875 242.875 C-124.11642578 243.58269531 -124.11642578 243.58269531 -125.57421875 244.3046875 C-128 245 -128 245 -129.97265625 244.44921875 C-132.74563194 242.46699528 -135.26013561 240.25680948 -137.75 237.9375 C-138.2749707 237.4530542 -138.79994141 236.9686084 -139.34082031 236.46948242 C-143.86320341 232.24098508 -148.01866306 227.74247489 -152 223 C-148.66333029 219.64988652 -145.29549154 216.3357858 -141.90234375 213.04296875 C-130.95531117 202.35528188 -120.56101912 191.75248881 -112 179 C-111.53787109 178.32404785 -111.07574219 177.6480957 -110.59960938 176.95166016 C-107.67352759 172.67161509 -104.80072448 168.36317798 -102 164 C-101.41992188 163.10023438 -100.83984375 162.20046875 -100.2421875 161.2734375 C-98.63829681 158.33801492 -98.63391361 156.29477753 -99 153 C-100.85606689 150.73214079 -100.85606689 150.73214079 -103.73046875 150.671875 C-115.64581984 151.86768084 -128.59711391 164.08550327 -138 171 C-138.58668457 171.43070801 -139.17336914 171.86141602 -139.77783203 172.30517578 C-150.75965564 180.42469843 -161.45233662 189.21726158 -171 199 C-175.35721509 197.41649903 -177.82294811 194.02069861 -180.6875 190.5625 C-181.20989258 189.9422998 -181.73228516 189.32209961 -182.27050781 188.68310547 C-183.85564434 186.79573882 -185.42983588 184.89983385 -187 183 C-187.47324707 182.42781738 -187.94649414 181.85563477 -188.43408203 181.26611328 C-190.97222793 178.19043449 -193.49348454 175.1014964 -196 172 C-194.55049595 167.64352355 -192.32252888 164.68242711 -189.375 161.1875 C-188.55773437 160.21167969 -187.74046875 159.23585938 -186.8984375 158.23046875 C-186.27195313 157.49441406 -185.64546875 156.75835938 -185 156 C-182.47530701 157.2623465 -182.34341224 158.19870477 -181.25 160.75 C-178.82379149 165.78280427 -175.825321 168.60937407 -170.74609375 171.109375 C-160.95487331 174.28490595 -149.14675848 172.12572043 -140 168 C-134.62745505 164.79355337 -129.71397907 161.24378089 -128 155 C-127.97542276 149.92070303 -128.36533518 144.43733023 -131 140 C-132.7142289 138.76603959 -132.7142289 138.76603959 -135 138 C-137.33501287 137.00392806 -139.66849562 136.00425683 -142 135 C-142.02578125 133.85144531 -142.0515625 132.70289063 -142.078125 131.51953125 C-142.40320597 121.61525517 -143.62529212 113.36481436 -147 104 C-147.70117188 102.02197266 -147.70117188 102.02197266 -148 100 C-146.23647502 97.71708068 -144.52253793 95.77901005 -142.5 93.75 C-141.37019755 92.57768596 -140.24128507 91.40451354 -139.11328125 90.23046875 C-138.56752441 89.6689209 -138.02176758 89.10737305 -137.45947266 88.52880859 C-135.78300144 86.77269237 -134.22903629 84.9375613 -132.6875 83.0625 C-129.15356894 78.96455001 -125.19811301 75.31646933 -121.25 71.625 C-120.58701904 71.0050415 -119.92403809 70.38508301 -119.2409668 69.74633789 C-113.70807404 64.62726456 -110.63810352 62.77655358 -102.9375 63.0625 C-93.55480272 63.19676419 -86.5997906 62.46892138 -79.125 56.3125 C-75.38410386 52.67091969 -72.25357653 49.16070922 -71 44 C-71.08316751 42.14348655 -71.2106271 40.28859173 -71.375 38.4375 C-71.47412109 35.75561523 -71.47412109 35.75561523 -71 33 C-69.16479492 31.1574707 -69.16479492 31.1574707 -66.66796875 29.55078125 C-65.75370117 28.9585376 -64.83943359 28.36629395 -63.89746094 27.75610352 C-59.30148432 24.97055752 -54.67057252 22.29632332 -49.9375 19.75 C-48.91398438 19.19715332 -47.89046875 18.64430664 -46.8359375 18.07470703 C-35.51914065 12.06394783 -23.84109295 6.88489533 -12 2 C-11.22398437 1.6690332 -10.44796875 1.33806641 -9.6484375 0.99707031 C-3.61322864 -1.4665643 -3.61322864 -1.4665643 0 0 Z " fill="#F14C37" transform="translate(434,445)"/>
<path d="M0 0 C7.69439622 6.51886346 16.82779677 16.34441369 18.125 26.8203125 C16.99964844 27.19542969 15.87429688 27.57054687 14.71484375 27.95703125 C13.9789502 28.20251709 13.24305664 28.44800293 12.48486328 28.70092773 C10.85999192 29.2421694 9.23465974 29.78202944 7.60888672 30.32055664 C3.63765299 31.63795574 -0.3254534 32.97038299 -4.26953125 34.3671875 C-4.94298584 34.60219971 -5.61644043 34.83721191 -6.31030273 35.0793457 C-8.15458879 35.72443959 -9.99536959 36.37952912 -11.8359375 37.03515625 C-16.12231591 38.1425625 -16.12231591 38.1425625 -18.875 36.8203125 C-20.515625 35.18359375 -20.515625 35.18359375 -22.125 33.1328125 C-28.60530388 25.44175121 -36.65945985 19.75104435 -46.8503418 18.43652344 C-50.01401831 18.28521608 -53.14575803 18.27405455 -56.3125 18.3203125 C-57.36759766 18.30484375 -58.42269531 18.289375 -59.50976562 18.2734375 C-71.62669212 18.33309006 -83.03340181 22.67487694 -92.1015625 30.8203125 C-104.05973726 43.36072048 -106.38435651 59.44189537 -106.29663086 76.08007812 C-105.91260035 91.60352913 -102.37869548 107.5722547 -90.875 118.8203125 C-77.13802846 129.40874217 -62.70505028 131.17836702 -45.875 129.8203125 C-39.04726975 128.77509829 -33.69153834 126.45564896 -27.875 122.8203125 C-26.885 122.4903125 -25.895 122.1603125 -24.875 121.8203125 C-23.77778481 120.00739456 -23.77778481 120.00739456 -22.875 117.8203125 C-22.4728125 117.09714844 -22.070625 116.37398437 -21.65625 115.62890625 C-21.2334375 114.84644531 -20.810625 114.06398438 -20.375 113.2578125 C-19.74078125 112.11119141 -19.74078125 112.11119141 -19.09375 110.94140625 C-17.33770009 106.44434253 -16.73861646 101.57020302 -15.875 96.8203125 C-29.405 96.8203125 -42.935 96.8203125 -56.875 96.8203125 C-56.875 86.5903125 -56.875 76.3603125 -56.875 65.8203125 C-31.135 65.8203125 -5.395 65.8203125 21.125 65.8203125 C21.125 93.34930716 18.93745786 120.79259236 -0.875 141.8203125 C-1.94621094 142.97080078 -1.94621094 142.97080078 -3.0390625 144.14453125 C-18.27567 159.15182526 -39.91934725 164.08722245 -60.68579102 164.1394043 C-84.38141763 163.80789224 -106.08916809 155.77428296 -122.875 138.8203125 C-139.37450553 121.16614544 -146.31782521 97.35466307 -146.1875 73.5703125 C-146.18186035 72.47984619 -146.1762207 71.38937988 -146.17041016 70.26586914 C-145.8117982 46.26194729 -137.85934247 23.95119594 -120.859375 6.609375 C-89.63812782 -23.55457895 -34.31378758 -26.01507265 0 0 Z " fill="#09344E" transform="translate(711.875,386.1796875)"/>
<path d="M0 0 C14.91683565 12.73485171 23.89663355 29.44845443 26 49 C27.70485838 70.67605648 23.10905284 90.50526953 9.75 107.9375 C-0.78498494 119.91070814 -15.86321546 128.66245904 -32 130 C-41.65432585 130.45994244 -51.68755331 130.92065241 -61 128 C-62.02222656 127.68160156 -63.04445313 127.36320313 -64.09765625 127.03515625 C-80.84362999 121.21813379 -92.97263388 109.64219094 -101 94 C-109.97437045 72.59783048 -110.42213543 49.33440119 -102.47265625 27.57421875 C-95.31844648 10.21055312 -82.03048588 -0.99219446 -65.37109375 -8.73828125 C-44.11268603 -16.69478843 -18.26290197 -13.44352506 0 0 Z " fill="#09344E" transform="translate(857,420)"/>
<path d="M0 0 C0.93263672 -0.00773438 1.86527344 -0.01546875 2.82617188 -0.0234375 C7.44535975 -0.01026804 11.25926985 0.02396618 15.4375 2.25 C12.4375 3.25 12.4375 3.25 10.4375 3.25 C10.4375 4.24 10.4375 5.23 10.4375 6.25 C6.30307431 8.96690831 3.13629903 9.43218965 -1.8125 9.625 C-8.98801954 10.04275285 -14.8012567 11.87020354 -20.21875 16.73828125 C-24.55953421 21.62166349 -26.12172005 26.3666407 -25.9296875 32.7890625 C-24.79734242 40.37818378 -20.43474488 46.33264017 -14.65234375 51.15625 C-7.6972705 55.86916942 -0.08452726 59.53428597 7.4375 63.25 C6.67566406 64.55710937 6.67566406 64.55710937 5.8984375 65.890625 C3.71296801 69.65931964 1.57002651 73.45115517 -0.5625 77.25 C-1.36494141 78.66732422 -1.36494141 78.66732422 -2.18359375 80.11328125 C-14.88743494 103.90285919 -19.10761104 131.73706627 -20.39538574 158.34225464 C-21.77263506 185.92621226 -26.70701032 208.11271599 -38.89208984 232.97851562 C-44.35584457 244.29802882 -48.30196018 255.31767242 -48 268 C-48.00708984 268.85464844 -48.01417969 269.70929688 -48.02148438 270.58984375 C-47.87408799 285.57892195 -40.83620039 297.86950183 -30.5546875 308.38671875 C-21.58378622 317.17231945 -11.68004638 323.14232489 0.3125 326.75 C4.43945749 328.07180133 6.65262668 329.84626594 9.4375 333.25 C10.2625 334.178125 11.0875 335.10625 11.9375 336.0625 C16.49720776 342.58461363 18.72518514 351.85824578 19.98046875 359.59765625 C20.49288561 362.57142587 21.4594492 364.01394258 23.4375 366.25 C21.7875 367.57 20.1375 368.89 18.4375 370.25 C14.93876729 368.85344703 13.72858169 367.53739516 12.1875 364.125 C11.85234375 363.40054687 11.5171875 362.67609375 11.171875 361.9296875 C10.92953125 361.37539063 10.6871875 360.82109375 10.4375 360.25 C6.21935183 364.2200218 2.82522897 368.55840284 -0.5625 373.25 C0.96489084 376.67673696 2.98081171 379.30841282 5.375 382.1875 C6.56222656 383.61835937 6.56222656 383.61835937 7.7734375 385.078125 C12.30756054 390.48617198 16.86513438 395.87426546 21.4375 401.25 C24.38395992 399.93268423 26.31586004 398.5503931 28.5 396.1875 C39.17294624 385.24492144 52.22910075 376.39407249 64.4375 367.25 C65.0975 367.58 65.7575 367.91 66.4375 368.25 C66.4375 369.24 66.4375 370.23 66.4375 371.25 C65.7775 371.25 65.1175 371.25 64.4375 371.25 C65.4275 374.715 65.4275 374.715 66.4375 378.25 C65.11298828 379.28447266 65.11298828 379.28447266 63.76171875 380.33984375 C41.99310745 397.36925332 20.42163258 415.26604412 3.4375 437.25 C2.42269931 438.48415191 1.40288882 439.71422736 0.375 440.9375 C-0.264375 441.700625 -0.90375 442.46375 -1.5625 443.25 C-2.0575 441.765 -2.0575 441.765 -2.5625 440.25 C-6.66473585 439.23459888 -6.66473585 439.23459888 -10.5625 440.25 C-9.14569756 435.92953102 -7.02486215 433.24538801 -3.9375 429.9375 C-2.71160156 428.61298828 -2.71160156 428.61298828 -1.4609375 427.26171875 C-0.83445312 426.59785156 -0.20796875 425.93398438 0.4375 425.25 C-1.02670216 422.18080701 -2.73673482 419.36645133 -4.5625 416.5 C-8.9085322 409.242445 -10.63700738 402.62056475 -8.5625 394.25 C-7.40411895 391.43142911 -6.06401122 388.91397151 -4.5625 386.25 C-5.5525 384.765 -5.5525 384.765 -6.5625 383.25 C-34.9119855 379.80809119 -67.10205377 387.93984684 -92.09765625 400.9296875 C-96.34365471 402.54766662 -99.05043919 402.60472176 -103.5625 402.25 C-106.125 400.6875 -106.125 400.6875 -107.5625 398.25 C-107.21679719 392.65652851 -105.53840627 388.32445916 -103.125 383.375 C-102.77373047 382.64321533 -102.42246094 381.91143066 -102.06054688 381.1574707 C-88.93605977 354.34446421 -71.43833401 325.90954582 -44.5625 311.25 C-43.9025 311.25 -43.2425 311.25 -42.5625 311.25 C-42.995625 310.62351562 -43.42875 309.99703125 -43.875 309.3515625 C-44.431875 308.53429687 -44.98875 307.71703125 -45.5625 306.875 C-46.119375 306.06289063 -46.67625 305.25078125 -47.25 304.4140625 C-48.5625 302.25 -48.5625 302.25 -48.5625 300.25 C-49.614375 300.353125 -50.66625 300.45625 -51.75 300.5625 C-61.80232945 300.49133307 -70.54249831 295.46039191 -77.52734375 288.56640625 C-82.81104025 282.55252521 -84.00390668 277.6303327 -84.09375 269.66796875 C-83.5625 267.25 -83.5625 267.25 -81.95703125 265.4453125 C-76.09006162 262.51661314 -67.38919469 263.47990644 -61.1875 265.25 C-60.32125 265.58 -59.455 265.91 -58.5625 266.25 C-58.55992187 265.59257812 -58.55734375 264.93515625 -58.5546875 264.2578125 C-57.9510526 249.40839407 -51.74615422 236.36810302 -45.5 223.125 C-35.00430177 200.80804994 -31.88082985 180.25931171 -30.44390869 155.72515869 C-28.58295434 124.22614788 -21.68591025 94.5826771 -7.5625 66.25 C-8.28824219 65.98316406 -9.01398438 65.71632813 -9.76171875 65.44140625 C-20.31358254 60.95281705 -29.03000538 52.42937189 -33.87109375 42.07421875 C-36.56098688 34.97715609 -36.87813993 26.57235238 -34 19.5 C-29.51277046 10.80894489 -22.88063153 4.97958553 -13.9765625 1.1328125 C-9.28343609 -0.08074193 -4.82648169 -0.04019277 0 0 Z M-7.5625 439.25 C-5.5625 440.25 -5.5625 440.25 -5.5625 440.25 Z " fill="#09334D" transform="translate(239.5625,241.75)"/>
<path d="M0 0 C0.33 0 0.66 0 1 0 C1.14695312 0.61746094 1.29390625 1.23492188 1.4453125 1.87109375 C3.004822 7.75958653 5.11007258 12.13542418 8.79296875 16.9921875 C10 19 10 19 10 23 C8.27734375 25.2265625 8.27734375 25.2265625 5.9375 27.625 C2.74442953 31.05047749 -0.28239387 34.47862652 -3.0625 38.25 C-3.63097656 39.01828125 -4.19945312 39.7865625 -4.78515625 40.578125 C-6.30045386 43.59897555 -6.35268199 45.66097178 -6 49 C-4.1329009 51.30275556 -2.64352259 52.67823871 0 54 C8.61304769 54.43795158 13.83556415 50.15199518 20.546875 45.34765625 C23.24917451 43.43216788 25.83638914 42.05654943 29 41 C29.4846875 41.45890625 29.969375 41.9178125 30.46875 42.390625 C35.05631856 46.59001468 39.32133509 49.46488174 45 52 C43.93570849 70.09295574 32.63001953 85.71582346 19.8203125 97.73046875 C7.7005903 108.48224099 -7.18215164 115.13662719 -22.5625 119.75 C-23.66239258 120.08507568 -24.76228516 120.42015137 -25.89550781 120.76538086 C-35.29095554 123.58336542 -44.75928876 126.0893672 -54.25 128.5625 C-71.40197926 133.03296142 -88.18570396 138.20136435 -104.875 144.1875 C-105.7731543 144.50855713 -106.67130859 144.82961426 -107.59667969 145.16040039 C-112.93807359 147.11470434 -117.95965741 149.3628834 -123 152 C-121.43208511 147.59809992 -119.1649723 143.74911202 -116.6875 139.8125 C-116.25018555 139.11616455 -115.81287109 138.4198291 -115.36230469 137.70239258 C-109.94815498 129.19998312 -103.98087887 121.10813385 -98 113 C-96.86154221 111.4469348 -95.72352311 109.89354792 -94.5859375 108.33984375 C-86.63441583 97.49716634 -78.57850652 86.73330018 -70.49536133 75.98852539 C-68.99520495 73.99362356 -67.4972076 71.99711557 -66 70 C-67.95292969 70.2165625 -67.95292969 70.2165625 -69.9453125 70.4375 C-71.67185676 70.62516785 -73.39842029 70.81265851 -75.125 71 C-75.9809375 71.09539062 -76.836875 71.19078125 -77.71875 71.2890625 C-82.17022474 71.76845209 -86.51441925 72.11765458 -91 72 C-86.65523649 65.91733109 -81.86622174 60.31301393 -76.94360352 54.69848633 C-73.7761759 51.07837735 -70.71688615 47.41312949 -67.75 43.625 C-51.81066365 24.05243257 -32.4140838 7.076844 -7 2 C-4.66745023 1.9395351 -2.33206747 1.92315114 0 2 C0 1.34 0 0.68 0 0 Z " fill="#F97834" transform="translate(230,645)"/>
<path d="M0 0 C5.81524967 4.93335746 9.84958861 10.13621269 13.2265625 16.95703125 C13.56558594 17.6015625 13.90460938 18.24609375 14.25390625 18.91015625 C18.44320472 28.09958516 16.72167663 38.65940104 13.55078125 47.8828125 C7.94067892 60.90685536 -1.94738059 68.59714365 -14.7734375 73.95703125 C-26.46615062 78.28230035 -40.61931562 77.05742031 -51.7734375 71.95703125 C-63.34772163 66.40609907 -70.50565573 58.04602682 -74.7734375 45.95703125 C-77.39388004 35.71042902 -76.76356117 24.32085155 -71.7734375 14.95703125 C-69.67121842 11.72044642 -67.33642789 8.8376572 -64.7734375 5.95703125 C-64.27328125 5.34085937 -63.773125 4.7246875 -63.2578125 4.08984375 C-47.0107291 -14.37275103 -18.73344157 -13.79942245 0 0 Z " fill="#FCFDFD" transform="translate(366.7734375,292.04296875)"/>
<path d="M0 0 C10.14634755 6.19099172 16.19149865 14.48914512 19.7421875 25.78125 C22.08700677 37.38509922 21.33025425 49.02219029 15.19921875 59.390625 C9.92536178 66.58334526 2.71603508 73.02225662 -6.2578125 74.78125 C-17.16020294 75.48045319 -17.16020294 75.48045319 -22.2578125 73.78125 C-22.84765625 71.92578125 -22.84765625 71.92578125 -23.1953125 69.59375 C-24.21704337 64.48509567 -25.54130414 60.61577512 -30.0625 57.5625 C-34.82825691 55.1185221 -38.67158968 54.67437986 -44.0078125 54.65625 C-47.3515625 54.5078125 -47.3515625 54.5078125 -50.2578125 53.78125 C-56.04255971 47.40380328 -56.62620396 38.26761209 -56.53515625 30.04296875 C-55.77208371 21.06880577 -52.35964765 13.35586657 -46.2578125 6.78125 C-45.50564453 5.96720703 -45.50564453 5.96720703 -44.73828125 5.13671875 C-32.78199458 -6.35411637 -14.26484198 -7.70005311 0 0 Z " fill="#FCFDFD" transform="translate(460.2578125,284.21875)"/>
<path d="M0 0 C1.08818 26.50038363 -10.08917268 60.61714627 -24 83 C-48.31819237 74.3964518 -76.71446891 40.43719243 -88 18 C-88 17.01 -88 16.02 -88 15 C-59.69129466 5.33569878 -29.94347645 -0.39865575 0 0 Z " fill="#114D6F" transform="translate(533,424)"/>
<path d="M0 0 C0.99 0.495 0.99 0.495 2 1 C-7.06210488 51.15335985 -7.06210488 51.15335985 -24 72 C-24.6290625 72.804375 -25.258125 73.60875 -25.90625 74.4375 C-39.98402483 91.3308298 -61.09129631 102.73913568 -80.0625 113.25 C-80.92593018 113.72840332 -81.78936035 114.20680664 -82.67895508 114.69970703 C-83.87621216 115.35108643 -83.87621216 115.35108643 -85.09765625 116.015625 C-85.80414307 116.40008789 -86.51062988 116.78455078 -87.23852539 117.18066406 C-89 118 -89 118 -91 118 C-89.6557791 114.40162404 -88.01340817 111.0349847 -86.2331543 107.63354492 C-81.88613251 99.28356868 -78.68506121 91.02221718 -76 82 C-75.71511719 81.12730469 -75.43023437 80.25460937 -75.13671875 79.35546875 C-73.23766096 73.17135748 -72.29983381 66.88708133 -71.375 60.5 C-71.16725952 59.11880981 -71.16725952 59.11880981 -70.95532227 57.7097168 C-70.26908843 52.9078031 -70.03410374 48.54245917 -70.3125 43.6875 C-70.09765625 41.19921875 -70.09765625 41.19921875 -69 39 C-64.76551089 35.99506404 -60.23116512 34.08201349 -55.4609375 32.07617188 C-51.11738252 30.17672839 -46.94209738 27.95950114 -42.75 25.75 C-41.86997314 25.28940186 -40.98994629 24.82880371 -40.08325195 24.35424805 C-26.25076903 17.04550219 -12.8701336 8.89399476 0 0 Z " fill="#F14C36" transform="translate(382,658)"/>
<path d="M0 0 C8.8642878 5.99232065 13.19809665 14.20497301 15.49609375 24.5 C17.76806186 40.2804917 16.36418598 56.64452164 7 70 C1.02311327 76.71884508 -6.30397544 79.43039754 -15.125 80.3125 C-23.26633294 79.65594089 -30.35515641 76.71362114 -36.28125 71.0546875 C-44.15385133 61.64335046 -45.34605482 51.03445411 -45.3125 39.25 C-45.32861328 38.13367188 -45.34472656 37.01734375 -45.36132812 35.8671875 C-45.36801387 24.39444416 -43.14714349 14.19609885 -36 5 C-25.74920397 -5.0597874 -12.59442034 -6.96712615 0 0 Z " fill="#FCFDFD" transform="translate(831,441)"/>
<path d="M0 0 C3.43950364 0.61198376 5.51564485 1.92058847 8.25 4.0625 C8.95640625 4.61035156 9.6628125 5.15820312 10.390625 5.72265625 C10.92171875 6.14417969 11.4528125 6.56570313 12 7 C3.93613488 29.26141487 -13.89543636 50.16914591 -29.6640625 67.41796875 C-30.95314976 68.84286287 -32.23567055 70.27413712 -33.48828125 71.73120117 C-44.48816846 84.52113412 -56.59906927 96.73378991 -70 107 C-71.1225375 107.90807447 -72.24212328 108.81980501 -73.359375 109.734375 C-103.67852667 134.4925069 -137.03459934 155.47901384 -172 173 C-172.72300293 173.3707666 -173.44600586 173.7415332 -174.19091797 174.12353516 C-176.01442053 175.05785122 -177.85039906 175.96771381 -179.6875 176.875 C-181.11642578 177.58269531 -181.11642578 177.58269531 -182.57421875 178.3046875 C-185 179 -185 179 -186.97265625 178.44921875 C-189.74563194 176.46699528 -192.26013561 174.25680948 -194.75 171.9375 C-195.2749707 171.4530542 -195.79994141 170.9686084 -196.34082031 170.46948242 C-200.86320341 166.24098508 -205.01866306 161.74247489 -209 157 C-199.66666667 147.66666667 -190.33333333 138.33333333 -181 129 C-180.44006348 128.39881348 -179.88012695 127.79762695 -179.30322266 127.17822266 C-178 126 -178 126 -176 126 C-176.04640625 127.05058594 -176.0928125 128.10117187 -176.140625 129.18359375 C-176.6020096 140.67679496 -176.6020096 140.67679496 -172 151 C-168.5870668 153.2752888 -167.11604846 153.1238429 -163.16748047 152.50341797 C-159.56018654 151.66558962 -156.3724016 150.19639745 -153.0625 148.5625 C-152.33522705 148.21123047 -151.6079541 147.85996094 -150.85864258 147.49804688 C-138.33288691 141.33003055 -126.46822141 133.94391049 -115 126 C-114.35562988 125.55930176 -113.71125977 125.11860352 -113.04736328 124.66455078 C-103.8156053 118.3438039 -95.00931213 111.77194239 -86.59912109 104.39306641 C-84.95096381 102.95728237 -83.28523163 101.54470205 -81.61328125 100.13671875 C-72.80602706 92.70645012 -64.31002429 84.98191707 -56 77 C-54.94063232 75.98365479 -54.94063232 75.98365479 -53.85986328 74.94677734 C-44.93679379 66.33665901 -36.62331668 57.61580808 -29.23535156 47.64990234 C-28.0017622 46.00235355 -26.73814454 44.38343868 -25.4609375 42.76953125 C-9.18403278 23.07443065 -9.18403278 23.07443065 0 0 Z " fill="#CC3B2C" transform="translate(491,511)"/>
<path d="M0 0 C2.40234375 1.6015625 2.40234375 1.6015625 4.9375 3.625 C12.56650874 9.359626 20.93182556 13.91845687 30.125 16.625 C34.06204139 17.83245693 35.93777575 19.30518155 38 23 C38.97265625 25.64453125 38.97265625 25.64453125 39 29 C37.34525792 32.08573459 35.16821711 34.68761947 32.9375 37.375 C31.77963269 38.82005998 30.62207931 40.26537155 29.46484375 41.7109375 C28.87687012 42.41605469 28.28889648 43.12117187 27.68310547 43.84765625 C25.96049123 45.95600638 25.96049123 45.95600638 24.64892578 48.27734375 C22.62632401 51.59177216 21.26945822 53.62702299 17.44897461 54.74951172 C14.28283287 55.1023246 11.18538544 55.21233615 8 55.25 C5.65973438 55.35278582 3.31986276 55.46492602 0.98046875 55.5859375 C-0.19080566 55.64362305 -1.36208008 55.70130859 -2.56884766 55.76074219 C-11.16053835 56.35984969 -19.59833653 58.16800651 -28 60 C-29.06033447 60.22792236 -29.06033447 60.22792236 -30.14208984 60.46044922 C-39.0925582 62.44335592 -47.24746177 65.5980538 -55.5390625 69.4140625 C-58.33606613 70.69575942 -61.13186221 71.8901076 -64 73 C-62.50445131 67.91672547 -60.31997622 63.53632429 -57.75 58.9375 C-57.31888916 58.165271 -56.88777832 57.39304199 -56.44360352 56.59741211 C-48.54521115 42.70980934 -39.73771766 28.8787275 -29 17 C-28.31035156 16.21753906 -27.62070313 15.43507813 -26.91015625 14.62890625 C-20.85285708 8.13346609 -9.34090581 -2.74652544 0 0 Z " fill="#F14C36" transform="translate(207,561)"/>
<path d="M0 0 C5.70891316 4.5830518 8.80375055 10.32136712 10.75 17.3125 C11.87242902 28.94138675 10.40626428 38.55964574 3.5625 48.125 C-3.46159984 56.4614582 -12.05672362 60.41597128 -22.8203125 61.59375 C-31.75107948 61.92970362 -38.7378365 59.98915531 -45.5625 54.125 C-52.67747974 47.23341052 -57.1358246 40.13354087 -57.5625 30 C-57.23198416 19.71921782 -53.09210615 11.88520392 -46.25 4.3125 C-33.2045726 -7.20187242 -14.83193677 -10.11769664 0 0 Z " fill="#FDFDFD" transform="translate(422.25,507.6875)"/>
<path d="M0 0 C2.63792774 1.15025919 3.62773029 2.59623883 5.265625 4.94140625 C6.04679687 6.04162109 6.04679687 6.04162109 6.84375 7.1640625 C7.23046875 7.72996094 7.6171875 8.29585937 8.015625 8.87890625 C6.33312918 12.93669028 3.49875651 15.98961921 0.640625 19.25390625 C-5.96826661 26.31645684 -5.96826661 26.31645684 -9.484375 35.00390625 C-8.86903108 38.54213376 -7.75988621 39.67482382 -4.984375 41.87890625 C-1.24268181 43.74975284 2.18598387 43.0817734 6.015625 41.87890625 C10.06856251 39.63639022 13.80120036 36.91911522 17.5625 34.2265625 C20.26479951 32.31107413 22.85201414 30.93545568 26.015625 29.87890625 C27.995625 32.18890625 29.975625 34.49890625 32.015625 36.87890625 C30.49320279 41.71966189 27.7356934 44.94403591 24.453125 48.69140625 C23.64512451 49.6206189 23.64512451 49.6206189 22.82080078 50.56860352 C15.7474547 58.58779181 7.94870873 65.01570578 -0.984375 70.87890625 C-1.77585938 71.40484375 -2.56734375 71.93078125 -3.3828125 72.47265625 C-19.17902514 82.49226039 -38.53510001 87.05574781 -56.984375 88.87890625 C-55.74246724 82.04158991 -53.67431876 76.59044208 -50.359375 70.50390625 C-49.91787109 69.67826172 -49.47636719 68.85261719 -49.02148438 68.00195312 C-45.49538716 61.53321363 -41.53402637 55.67748153 -36.984375 49.87890625 C-36.324375 48.88890625 -35.664375 47.89890625 -34.984375 46.87890625 C-35.73203125 47.03488281 -36.4796875 47.19085937 -37.25 47.3515625 C-38.72726563 47.64353516 -38.72726563 47.64353516 -40.234375 47.94140625 C-41.69617188 48.23724609 -41.69617188 48.23724609 -43.1875 48.5390625 C-45.852494 48.8628816 -47.47309223 48.73393824 -49.984375 47.87890625 C-46.77992022 41.37881302 -43.12899122 35.43876264 -38.734375 29.69140625 C-38.29818848 29.11495361 -37.86200195 28.53850098 -37.41259766 27.94458008 C-36.32145918 26.54747332 -35.15842317 25.20710103 -33.984375 23.87890625 C-33.324375 23.87890625 -32.664375 23.87890625 -31.984375 23.87890625 C-31.76394531 23.316875 -31.54351562 22.75484375 -31.31640625 22.17578125 C-26.0683223 13.12629924 -13.75699409 7.02887544 -4.984375 1.87890625 C-1.984375 -0.12109375 -1.984375 -0.12109375 0 0 Z " fill="#F9B441" transform="translate(232.984375,656.12109375)"/>
<path d="M0 0 C5.73638887 4.8491057 8.64893321 9.93967639 9.30297852 17.50415039 C9.32803467 18.77250732 9.35309082 20.04086426 9.37890625 21.34765625 C9.39590073 22.04080429 9.4128952 22.73395233 9.43040466 23.44810486 C9.48313375 25.6528117 9.5235443 27.85751057 9.5625 30.0625 C9.62146769 32.94933907 9.68592385 35.83601598 9.75390625 38.72265625 C9.77778915 39.77122299 9.77778915 39.77122299 9.80215454 40.8409729 C9.96718954 47.24944187 10.44520576 53.61298866 11 60 C5.39 60 -0.22 60 -6 60 C-6.495 56.535 -6.495 56.535 -7 53 C-7.845625 53.763125 -8.69125 54.52625 -9.5625 55.3125 C-15.72121374 60.34235438 -21.03986341 61.63174154 -28.92578125 61.4140625 C-35.43491729 60.53735549 -40.36086433 57.95896702 -44.5625 52.9375 C-46.94978305 48.05913898 -47.86145443 43.45587804 -47 38 C-44.61893845 32.20216851 -40.62519322 27.78026791 -35 25 C-28.97908142 22.7740378 -23.43554946 22.76174006 -17.0625 22.875 C-15.6074707 22.88853516 -15.6074707 22.88853516 -14.12304688 22.90234375 C-11.74843593 22.92573893 -9.37435224 22.95851824 -7 23 C-7.11458693 21.56163249 -7.24209116 20.12429034 -7.375 18.6875 C-7.47941406 17.48673828 -7.47941406 17.48673828 -7.5859375 16.26171875 C-7.89564426 13.72775559 -7.89564426 13.72775559 -10 11 C-14.85923876 9.38025375 -19.20959948 9.22156499 -23.875 11.25 C-26.37017829 13.06345914 -26.37017829 13.06345914 -28 17 C-32.95 17 -37.9 17 -43 17 C-43 10.25024744 -41.98544812 8.17880616 -37.4921875 3.39453125 C-27.34692646 -6.16088903 -11.9548196 -6.72928524 0 0 Z " fill="#09314B" transform="translate(746,620)"/>
<path d="M0 0 C6.0944663 4.92517916 8.29042304 10.51881332 10 18 C10.35679494 21.4728968 10.35372548 24.89464503 10.29296875 28.3828125 C10.28872391 29.32309296 10.28447906 30.26337341 10.28010559 31.23214722 C10.26348872 34.19673921 10.22586997 37.16061806 10.1875 40.125 C10.17243115 42.15103176 10.15874662 44.17707431 10.14648438 46.203125 C10.11364116 51.13568594 10.06197926 56.06772263 10 61 C4.72 61 -0.56 61 -6 61 C-6.01458252 59.72358643 -6.02916504 58.44717285 -6.04418945 57.13208008 C-6.1022354 52.38879621 -6.17946828 47.64598393 -6.26245117 42.90307617 C-6.29567083 40.85172184 -6.32371197 38.80027675 -6.34643555 36.7487793 C-6.3800357 33.79697051 -6.43235476 30.84599114 -6.48828125 27.89453125 C-6.49467117 26.97976517 -6.5010611 26.06499908 -6.50764465 25.12251282 C-6.61774885 20.33593526 -6.756869 16.80844302 -10 13 C-13.70251647 11.76582784 -17.14717863 11.5484975 -21 12 C-23.81780534 13.38885248 -23.81780534 13.38885248 -26 15 C-26.66 15 -27.32 15 -28 15 C-28.91187611 17.73562834 -29.14730259 19.46145475 -29.20532227 22.2878418 C-29.22526749 23.14850754 -29.24521271 24.00917328 -29.26576233 24.8959198 C-29.28247482 25.82100845 -29.29918732 26.74609711 -29.31640625 27.69921875 C-29.33718735 28.64940384 -29.35796844 29.59958893 -29.37937927 30.5785675 C-29.44478052 33.61480456 -29.50371604 36.65112831 -29.5625 39.6875 C-29.60569417 41.74545169 -29.64930876 43.80339459 -29.69335938 45.86132812 C-29.80045231 50.90746316 -29.90174646 55.95368543 -30 61 C-35.28 61 -40.56 61 -46 61 C-46 40.54 -46 20.08 -46 -1 C-40.72 -1 -35.44 -1 -30 -1 C-29.67 0.65 -29.34 2.3 -29 4 C-28.113125 3.21625 -27.22625 2.4325 -26.3125 1.625 C-18.64465892 -4.66976256 -8.67480301 -4.70148995 0 0 Z " fill="#08314A" transform="translate(570,619)"/>
<path d="M0 0 C6.69934664 6.14831813 10.63296258 14.27446539 11.265625 23.3125 C11.71267292 37.58220715 8.63818235 47.56758334 -1.0078125 58.40625 C-1.52988281 59.03273438 -2.05195313 59.65921875 -2.58984375 60.3046875 C-9.94798737 68.50427334 -20.80243075 72.90932712 -31.6328125 73.65625 C-42.92605516 74.1176153 -52.4840364 72.79330346 -61.3828125 65.21875 C-70.66383098 56.10160183 -75.03270138 47.07508545 -75.4453125 34.03125 C-75.11545882 20.91626754 -70.37374762 10.42711429 -60.83984375 1.33984375 C-42.36704815 -13.79804008 -18.93027544 -15.02636649 0 0 Z M-58.0078125 9.40625 C-64.2579159 16.72440904 -67.67305749 25.50153794 -67.296875 35.1796875 C-65.99961079 45.17212806 -60.64610328 53.03585364 -53.0078125 59.40625 C-44.80508511 64.58363687 -36.29785228 65.61646599 -26.8203125 63.79296875 C-16.66302851 61.07397881 -9.1746995 56.31518316 -3.5078125 47.34375 C1.66503691 38.30630088 2.71221117 27.50948287 0.26953125 17.421875 C-3.21504661 8.11085724 -9.1351057 2.66237655 -18.0078125 -1.59375 C-33.16367594 -5.69126357 -47.05614915 -1.41091924 -58.0078125 9.40625 Z " fill="#0A324D" transform="translate(432.0078125,504.59375)"/>
<path d="M0 0 C15.84 0 31.68 0 48 0 C48 13.77902607 48 13.77902607 42.75 19.8125 C42.21439453 20.47483643 41.67878906 21.13717285 41.12695312 21.81958008 C40.00617754 23.20109619 38.87317408 24.57277676 37.72851562 25.93457031 C35.45209176 28.65470391 33.25892908 31.43698053 31.05957031 34.21948242 C29.17681713 36.59532359 27.27349691 38.95395681 25.36523438 41.30932617 C23.56923713 43.53344651 21.7858323 45.76770962 20 48 C29.57 48.33 39.14 48.66 49 49 C49 53.29 49 57.58 49 62 C32.5 62 16 62 -1 62 C-1 49.8312926 -0.32384021 47.96586517 7 40 C8.64730187 37.90878237 10.27091544 35.81092429 11.875 33.6875 C12.71283325 32.59320724 13.55138392 31.49946342 14.390625 30.40625 C14.81408203 29.85324219 15.23753906 29.30023437 15.67382812 28.73046875 C17.98649119 25.71276702 20.30623573 22.70051425 22.625 19.6875 C24.06875 17.810625 25.5125 15.93375 27 14 C18.09 13.67 9.18 13.34 0 13 C0 8.71 0 4.42 0 0 Z " fill="#083049" transform="translate(829,618)"/>
<path d="M0 0 C0.93263672 -0.00773438 1.86527344 -0.01546875 2.82617188 -0.0234375 C7.44535975 -0.01026804 11.25926985 0.02396618 15.4375 2.25 C12.4375 3.25 12.4375 3.25 10.4375 3.25 C10.4375 4.24 10.4375 5.23 10.4375 6.25 C6.30307431 8.96690831 3.13629903 9.43218965 -1.8125 9.625 C-8.98801954 10.04275285 -14.8012567 11.87020354 -20.21875 16.73828125 C-24.55953421 21.62166349 -26.12172005 26.3666407 -25.9296875 32.7890625 C-24.79734242 40.37818378 -20.43474488 46.33264017 -14.65234375 51.15625 C-7.6972705 55.86916942 -0.08452726 59.53428597 7.4375 63.25 C6.67566406 64.55710937 6.67566406 64.55710937 5.8984375 65.890625 C3.71296801 69.65931964 1.57002651 73.45115517 -0.5625 77.25 C-1.09746094 78.19488281 -1.63242188 79.13976562 -2.18359375 80.11328125 C-14.57626086 103.32014567 -19.19511161 130.81468863 -20.22143555 156.81835938 C-20.38200566 160.73148197 -20.63318367 164.42521047 -21.5625 168.25 C-21.8925 168.25 -22.2225 168.25 -22.5625 168.25 C-22.8925 163.96 -23.2225 159.67 -23.5625 155.25 C-26.07333114 156.50541557 -26.43375446 157.75063488 -27.5625 160.25 C-30.42284872 157.38965128 -29.86281698 155.44571352 -29.875 151.4375 C-29.66886388 121.95665599 -20.6265478 92.45751231 -7.5625 66.25 C-8.28824219 65.98316406 -9.01398438 65.71632813 -9.76171875 65.44140625 C-20.31358254 60.95281705 -29.03000538 52.42937189 -33.87109375 42.07421875 C-36.56098688 34.97715609 -36.87813993 26.57235238 -34 19.5 C-29.51277046 10.80894489 -22.88063153 4.97958553 -13.9765625 1.1328125 C-9.28343609 -0.08074193 -4.82648169 -0.04019277 0 0 Z " fill="#09304A" transform="translate(239.5625,241.75)"/>
<path d="M0 0 C5.28 0 10.56 0 16 0 C16 6.27 16 12.54 16 19 C21.61 19 27.22 19 33 19 C33 23.29 33 27.58 33 32 C27.39 32 21.78 32 16 32 C16.07406892 36.48500075 16.15694819 40.96803066 16.26245117 45.45214844 C16.2956588 46.9767834 16.32370378 48.50154006 16.34643555 50.02636719 C16.38005958 52.22122954 16.43237542 54.41498088 16.48828125 56.609375 C16.51446533 57.92905273 16.54064941 59.24873047 16.56762695 60.60839844 C17.01382914 64.10847791 17.44776721 65.60353729 20 68 C23.19802776 68.48466366 23.19802776 68.48466366 26.6875 68.25 C28.770625 68.1675 30.85375 68.085 33 68 C32.67 72.29 32.34 76.58 32 81 C28.62413315 81.10831658 25.25176769 81.18746727 21.875 81.25 C20.92367187 81.28351563 19.97234375 81.31703125 18.9921875 81.3515625 C13.12102816 81.43310638 9.59907391 81.04514425 5 77 C0.15778271 70.84907534 -0.15235424 65.68236274 -0.09765625 58.07421875 C-0.0962413 57.32662796 -0.09482635 56.57903717 -0.09336853 55.80879211 C-0.08779764 53.43498635 -0.0752506 51.06127697 -0.0625 48.6875 C-0.05748123 47.07226699 -0.05291899 45.4570325 -0.04882812 43.84179688 C-0.03783775 39.89449445 -0.02059332 35.94726353 0 32 C-3.3 32 -6.6 32 -10 32 C-10 27.71 -10 23.42 -10 19 C-6.7 19 -3.4 19 0 19 C0 12.73 0 6.46 0 0 Z " fill="#09304A" transform="translate(628,599)"/>
<path d="M0 0 C5.61 0 11.22 0 17 0 C17 28.71 17 57.42 17 87 C11.39 87 5.78 87 0 87 C0 58.29 0 29.58 0 0 Z " fill="#0C344D" transform="translate(494,593)"/>
<path d="M0 0 C5.28 0 10.56 0 16 0 C16 29.37 16 58.74 16 89 C10.72 89 5.44 89 0 89 C0 59.63 0 30.26 0 0 Z " fill="#072F48" transform="translate(770,591)"/>
<path d="M0 0 C2.35125 0.061875 2.35125 0.061875 4.75 0.125 C4.75 5.405 4.75 10.685 4.75 16.125 C2.213125 16.24875 2.213125 16.24875 -0.375 16.375 C-5.38503429 16.85735247 -8.49746576 17.55551621 -12.25 21.125 C-15.74691974 26.48339866 -16.84865743 31.24440391 -16.859375 37.5625 C-16.87591125 38.32804199 -16.89244751 39.09358398 -16.90948486 39.88232422 C-16.95757106 42.29663424 -16.97924617 44.71031645 -17 47.125 C-17.0281929 48.77477051 -17.05812491 50.42451227 -17.08984375 52.07421875 C-17.16655419 56.09142361 -17.2074334 60.10671265 -17.25 64.125 C-22.53 64.125 -27.81 64.125 -33.25 64.125 C-33.25 43.665 -33.25 23.205 -33.25 2.125 C-27.97 2.125 -22.69 2.125 -17.25 2.125 C-16.92 4.105 -16.59 6.085 -16.25 8.125 C-15.79109375 7.71507812 -15.3321875 7.30515625 -14.859375 6.8828125 C-14.24578125 6.34398437 -13.6321875 5.80515625 -13 5.25 C-12.39671875 4.71632813 -11.7934375 4.18265625 -11.171875 3.6328125 C-7.4125383 0.68341419 -4.78772979 -0.12599289 0 0 Z " fill="#0A324B" transform="translate(923.25,615.875)"/>
<path d="M0 0 C2 3 2 3 3.625 6.375 C6.31817329 11.15386389 10.7795229 13.98839884 15.96484375 15.6171875 C26.12303818 17.52794192 35.49667898 14.33900468 45 11 C47 13 49 15 51 17 C50.76271186 24.23728814 50.76271186 24.23728814 47.5625 27.4375 C43.35307501 30.00422255 41.02006478 30.56678151 36 30 C33.0925909 28.26939935 30.58627356 26.17022086 28 24 C27.01 23.34 26.02 22.68 25 22 C23.948125 23.11375 23.948125 23.11375 22.875 24.25 C14.75334695 32.0185377 7.46291389 33.53833196 -3.4765625 33.38671875 C-9.46599667 32.72934183 -14.67053473 30.56189529 -18.76171875 26.0625 C-20.38642803 23.35635962 -20.29669113 21.2058063 -19.74609375 18.140625 C-16.69787375 9.39494668 -7.42883368 4.58660339 0 0 Z " fill="#F9D8A7" transform="translate(388,356)"/>
<path d="M0 0 C5.61 0 11.22 0 17 0 C17 20.79 17 41.58 17 63 C11.39 63 5.78 63 0 63 C0 42.21 0 21.42 0 0 Z " fill="#093751" transform="translate(671,617)"/>
<path d="M0 0 C5.61 0 11.22 0 17 0 C17 20.79 17 41.58 17 63 C11.39 63 5.78 63 0 63 C0 42.21 0 21.42 0 0 Z " fill="#093751" transform="translate(592,617)"/>
<path d="M0 0 C5.28 0 10.56 0 16 0 C16 20.79 16 41.58 16 63 C10.72 63 5.44 63 0 63 C0 42.21 0 21.42 0 0 Z " fill="#082F48" transform="translate(800,617)"/>
<path d="M0 0 C0.99 0.495 0.99 0.495 2 1 C1.719172 2.98073365 1.42503386 4.95958448 1.125 6.9375 C0.96257812 8.03964844 0.80015625 9.14179687 0.6328125 10.27734375 C0.42398438 11.17582031 0.21515625 12.07429687 0 13 C-0.66 13.33 -1.32 13.66 -2 14 C-2.22429687 15.07765625 -2.44859375 16.1553125 -2.6796875 17.265625 C-4.36368153 22.02863769 -6.87345896 23.47352278 -11.125 25.75 C-12.23379517 26.37116699 -12.23379517 26.37116699 -13.36499023 27.00488281 C-49.71939156 46.90413406 -49.71939156 46.90413406 -68 49 C-68 45.37 -68 41.74 -68 38 C-66.62972656 37.36835937 -65.25945312 36.73671875 -63.84765625 36.0859375 C-43.7620007 26.71868415 -24.33441618 16.3330486 -6.01489258 3.82275391 C-5.24814209 3.30503418 -4.4813916 2.78731445 -3.69140625 2.25390625 C-3.02310791 1.79314697 -2.35480957 1.3323877 -1.66625977 0.85766602 C-1.11639404 0.57463623 -0.56652832 0.29160645 0 0 Z " fill="#CB3B2C" transform="translate(382,658)"/>
<path d="M0 0 C0 3.43442344 -0.41415606 3.87140294 -2.52734375 6.40625 C-3.06721924 7.06173828 -3.60709473 7.71722656 -4.16333008 8.39257812 C-4.74880615 9.08802734 -5.33428223 9.78347656 -5.9375 10.5 C-7.14859589 11.9582018 -8.35953315 13.41653536 -9.5703125 14.875 C-10.16360352 15.58527344 -10.75689453 16.29554688 -11.36816406 17.02734375 C-13.3978547 19.48094943 -15.34862495 21.99357581 -17.3125 24.5 C-27.67882157 37.16994858 -40.00697037 48.72082165 -53.125 58.5 C-53.78588623 58.99338867 -54.44677246 59.48677734 -55.12768555 59.99511719 C-61.27063963 64.53528751 -67.52406017 68.91428081 -73.8125 73.25 C-75.25423584 74.25256836 -75.25423584 74.25256836 -76.72509766 75.27539062 C-77.62663574 75.89091797 -78.52817383 76.50644531 -79.45703125 77.140625 C-80.26116455 77.69266602 -81.06529785 78.24470703 -81.89379883 78.81347656 C-84 80 -84 80 -87 80 C-84.36696774 76.63901176 -81.69026937 73.3153241 -79 70 C-78.20980469 69.01902344 -77.41960937 68.03804687 -76.60546875 67.02734375 C-69.99217926 58.98719301 -62.77499548 51.56073123 -55.4375 44.1875 C-54.95489716 43.69972076 -54.47229431 43.21194153 -53.97506714 42.7093811 C-47.33317196 36.01139336 -40.42059995 29.82890217 -33 24 C-32.27433838 23.42564209 -31.54867676 22.85128418 -30.80102539 22.25952148 C-28.81552622 20.70018522 -26.81817109 19.15828439 -24.8125 17.625 C-24.10488525 17.08335205 -23.39727051 16.5417041 -22.66821289 15.98364258 C-15.29489072 10.38820364 -7.68230071 5.15944556 0 0 Z " fill="#CE3A2A" transform="translate(321,609)"/>
<path d="M0 0 C4.08513017 2.668678 7.43605094 5.30815282 9 10 C9.49923837 15.21335806 9.62614705 19.62247649 7.4375 24.4375 C3.21446274 28.87710327 -0.46581929 31.19208683 -6.5625 31.5 C-11.00418952 31.28093708 -13.59372257 29.93098291 -17 27 C-21.0244455 22.54047932 -22.37799641 19.20889412 -22.27734375 13.125 C-21.59865602 7.92491371 -18.9888075 4.7668303 -14.9375 1.625 C-9.7358361 -1.2525162 -5.67867548 -1.6642817 0 0 Z " fill="#0A344D" transform="translate(355,313)"/>
<path d="M0 0 C4.004793 2.0023965 6.6587028 4.17998877 9 8 C10.66026461 12.98079383 10.59903425 17.30273629 8.875 22.1875 C6.30473379 26.04289931 3.43269613 28.97983711 -0.9375 30.8125 C-1.618125 30.874375 -2.29875 30.93625 -3 31 C-4.0725 31.12375 -5.145 31.2475 -6.25 31.375 C-12.08019788 30.79198021 -16.02642382 28.09692469 -20 23.875 C-22.03740031 18.0174741 -22.02708606 12.17268206 -19.375 6.5625 C-13.50006765 0.2237572 -8.4777159 -1.26156487 0 0 Z " fill="#09314B" transform="translate(457,305)"/>
<path d="M0 0 C1.69968841 2.18756193 2.73478913 4.51476437 4 7 C3.07703125 7.32871094 2.1540625 7.65742188 1.203125 7.99609375 C-22.33317771 16.51907428 -44.43266021 27.67539174 -65.6328125 40.9453125 C-69 43 -69 43 -70 43 C-70.33 39.7 -70.66 36.4 -71 33 C-64.22867038 28.06236152 -57.31581997 23.7194275 -49.9375 19.75 C-48.91398437 19.19715332 -47.89046875 18.64430664 -46.8359375 18.07470703 C-35.51914065 12.06394783 -23.84109295 6.88489533 -12 2 C-11.22398437 1.6690332 -10.44796875 1.33806641 -9.6484375 0.99707031 C-3.58073235 -1.47982962 -3.58073235 -1.47982962 0 0 Z " fill="#F56F59" transform="translate(434,445)"/>
<path d="M0 0 C1.485 0.495 1.485 0.495 3 1 C5.14255793 0.61067144 5.14255793 0.61067144 7 0 C2.38367236 20.66485491 -5.02707831 38.61716385 -19.375 54.5 C-19.87467285 55.0583252 -20.3743457 55.61665039 -20.88916016 56.19189453 C-22.3359375 57.71875 -22.3359375 57.71875 -25 60 C-26.32 60 -27.64 60 -29 60 C-28.67 58.68 -28.34 57.36 -28 56 C-28.99 56 -29.98 56 -31 56 C-30.48405353 51.86526234 -29.42215264 49.99045057 -26.5 47.0625 C-15.36144616 35.00571412 -8.82755212 20.55544573 -4 5 C-3.34 5 -2.68 5 -2 5 C-1.855625 4.360625 -1.71125 3.72125 -1.5625 3.0625 C-1 1 -1 1 0 0 Z " fill="#09324D" transform="translate(381,686)"/>
<path d="M0 0 C3.13187515 2.31486424 4.63130916 5.02017181 6.00390625 8.66796875 C5.99782626 13.85419854 3.03266831 16.6303574 -0.1875 20.5 C-1.37002338 21.96751539 -2.55104438 23.43624282 -3.73046875 24.90625 C-4.29685059 25.60105469 -4.86323242 26.29585937 -5.44677734 27.01171875 C-6.82938028 28.78158959 -8.04762084 30.56732375 -9.23828125 32.46875 C-11 35 -11 35 -14 36 C-16.22818441 36.06937062 -18.45834524 36.08457084 -20.6875 36.0625 C-22.45673828 36.04896484 -22.45673828 36.04896484 -24.26171875 36.03515625 C-25.16535156 36.02355469 -26.06898438 36.01195312 -27 36 C-26.56429687 35.35675781 -26.12859375 34.71351563 -25.6796875 34.05078125 C-17.78692014 22.07495892 -12.81524916 12.63386689 -14 -2 C-9.09471773 -3.63509409 -4.68948933 -1.89225008 0 0 Z " fill="#CC3B2C" transform="translate(240,578)"/>
<path d="M0 0 C-3.65452109 2.06559888 -7.53837274 3.10043267 -11.5625 4.1875 C-12.33843506 4.40035645 -13.11437012 4.61321289 -13.91381836 4.83251953 C-22.08980093 7.05823443 -30.30079548 9.14980951 -38.50683594 11.26123047 C-46.63262528 13.3617048 -54.73042267 15.54973328 -62.8125 17.8125 C-64.36819702 18.24731689 -64.36819702 18.24731689 -65.95532227 18.69091797 C-69.82370537 19.78148132 -73.65195063 20.87899076 -77.44921875 22.19921875 C-80 23 -80 23 -84 23 C-86.17457267 20.12645755 -87 18.63563409 -87 15 C-59.0862197 5.47052213 -29.54809518 -0.42892396 0 0 Z " fill="#30728F" transform="translate(532,424)"/>
<path d="M0 0 C1.17949219 0.11085938 2.35898437 0.22171875 3.57421875 0.3359375 C4.47785156 0.43132812 5.38148438 0.52671875 6.3125 0.625 C6.3125 1.285 6.3125 1.945 6.3125 2.625 C4.9140625 3.81640625 4.9140625 3.81640625 2.9375 5.1875 C-5.89775354 11.64933188 -13.55227247 19.37553153 -21.3125 27.0625 C-22.11212158 27.84906982 -22.91174316 28.63563965 -23.7355957 29.44604492 C-29.15754132 34.86015778 -34.02404491 40.54679788 -38.6875 46.625 C-40.6875 45.625 -40.6875 45.625 -41.5390625 43.55859375 C-41.92191406 42.32302734 -41.92191406 42.32302734 -42.3125 41.0625 C-42.57289063 40.23621094 -42.83328125 39.40992188 -43.1015625 38.55859375 C-43.29492188 37.92050781 -43.48828125 37.28242187 -43.6875 36.625 C-42.50994141 35.3565625 -42.50994141 35.3565625 -41.30859375 34.0625 C-40.24722859 32.91682158 -39.1860431 31.77097669 -38.125 30.625 C-37.56852783 30.02486084 -37.01205566 29.42472168 -36.4387207 28.80639648 C-33.67881615 25.82015801 -30.97535644 22.81477078 -28.375 19.6875 C-24.84106894 15.58955001 -20.88561301 11.94146933 -16.9375 8.25 C-16.27451904 7.6300415 -15.61153809 7.01008301 -14.9284668 6.37133789 C-7.26465963 -0.71927323 -7.26465963 -0.71927323 0 0 Z " fill="#F46E58" transform="translate(329.6875,508.375)"/>
<path d="M0 0 C1.03543945 -0.0299707 1.03543945 -0.0299707 2.09179688 -0.06054688 C7.19414856 -0.05571052 10.22463143 1.09790185 14.0625 4.4375 C14.5625 8.0625 14.5625 8.0625 14.0625 11.4375 C13.4025 12.0975 12.7425 12.7575 12.0625 13.4375 C7.56203685 13.18747427 4.64461773 11.01995696 1.0625 8.4375 C2.18006266 12.30598614 3.09123292 14.72672757 6.0625 17.4375 C-0.85581314 20.37254194 -7.44379353 21.40890639 -14.9375 20.4375 C-18.94980528 18.46654302 -21.64990216 16.29029636 -23.9375 12.4375 C-24.29602373 11.11071832 -24.6331523 9.77774676 -24.9375 8.4375 C-24.12925781 8.11136719 -23.32101562 7.78523437 -22.48828125 7.44921875 C-20.88533203 6.79373047 -20.88533203 6.79373047 -19.25 6.125 C-18.19425781 5.69574219 -17.13851563 5.26648438 -16.05078125 4.82421875 C-12.96392196 3.56114124 -12.96392196 3.56114124 -10.5390625 1.796875 C-7.04716914 -0.02771793 -3.84645946 -0.03928603 0 0 Z " fill="#FAD9A8" transform="translate(282.9375,588.5625)"/>
<path d="M0 0 C4.76285761 2.18222183 7.99417152 4.80254725 10.8046875 9.31640625 C11.85379398 13.60086907 12.20724904 17.10872162 10.8046875 21.31640625 C7.68221354 20.61691439 4.83688538 19.56231969 1.8671875 18.37890625 C-2.41644612 16.7789949 -6.41222737 15.89676663 -10.9453125 15.31640625 C-16.30837312 14.61326362 -19.77443777 13.40073746 -24.1953125 10.31640625 C-22.74515056 6.68312008 -20.97338933 5.19899048 -17.6953125 3.12890625 C-16.90125 2.61972656 -16.1071875 2.11054688 -15.2890625 1.5859375 C-10.40304046 -1.37666915 -5.5086304 -1.71532085 0 0 Z " fill="#74CFE9" transform="translate(457.1953125,255.68359375)"/>
<path d="M0 0 C2 1 4 2 6 3 C6.39540595 10.38091099 5.22142119 15.70369759 1.0625 21.875 C-2.11199385 25.14569063 -3.86973802 25.89724891 -8.4375 26.3125 C-13.75884764 25.84571512 -15.96257003 24.03742997 -19.6875 20.3125 C-22 17 -22 17 -24 9 C-18.06 7.68 -12.12 6.36 -6 5 C-5.01 7.97 -4.02 10.94 -3 14 C-1.82953565 10.48860694 -2.0100187 7.71594451 -2.16015625 4.05859375 C-2 2 -2 2 0 0 Z " fill="#F8FAFA" transform="translate(413,390)"/>
<path d="M0 0 C8.34870733 3.78300801 15.22291309 9.48740501 18.9375 18 C19.288125 18.99 19.63875 19.98 20 21 C9.77276896 21.66314899 2.06242933 21.21939212 -5.91015625 14.35546875 C-9.50814983 10.58735727 -11.10319473 7.36612593 -11 2 C-8.863326 -2.55823787 -4.07102163 -1.22405718 0 0 Z " fill="#08314B" transform="translate(241,268)"/>
<path d="M0 0 C1.11246094 -0.01675781 2.22492188 -0.03351563 3.37109375 -0.05078125 C7.84884275 0.4589258 10.41908648 2.16908648 13.5625 5.3125 C14.0625 8.1875 14.0625 8.1875 13.5625 11.3125 C6.70922488 16.9474151 0.09361154 16.87775156 -8.4375 16.3125 C-12.1875 15.1875 -12.1875 15.1875 -14.4375 13.3125 C-15.625 10.4375 -15.625 10.4375 -15.4375 7.3125 C-10.93427304 1.65130039 -7.09888403 0.02462041 0 0 Z " fill="#104C6E" transform="translate(414.4375,346.6875)"/>
<path d="M0 0 C0.74958984 0.00451172 1.49917969 0.00902344 2.27148438 0.01367188 C4.11852383 0.02543646 5.96552213 0.04337135 7.8125 0.0625 C8.5951087 9.01902174 8.5951087 9.01902174 5.5625 13.0625 C0.95236013 16.415329 -2.29826091 17.5878347 -7.9921875 17.4375 C-10.1875 17.0625 -10.1875 17.0625 -13.25 15 C-15.679903 11.31595351 -15.89680433 9.39713758 -15.1875 5.0625 C-11.02910375 -0.38643301 -6.37916887 -0.07242724 0 0 Z " fill="#FBFCFC" transform="translate(731.1875,651.9375)"/>
<path d="M0 0 C3.03978021 0.68164768 4.80055419 2.23591662 6.93359375 4.43359375 C8.60013735 7.76668094 8.3498717 11.10907301 7.24609375 14.62109375 C4.79194511 18.01015616 2.06365708 19.24124254 -2.00390625 19.93359375 C-5.31000355 19.39382276 -7.44514778 18.41875001 -9.921875 16.125 C-11.80038896 13.34890258 -11.82443464 10.87240494 -11.578125 7.59375 C-10.11856088 1.43238391 -5.77821305 -0.36045563 0 0 Z " fill="#0A314A" transform="translate(602.06640625,589.56640625)"/>
<path d="M0 0 C3.03978021 0.68164768 4.80055419 2.23591662 6.93359375 4.43359375 C8.34360039 7.25360702 8.17907826 9.3036663 7.93359375 12.43359375 C6.65670529 15.24274836 5.62259558 16.93466139 3.12109375 18.74609375 C0.16726451 19.67444008 -1.98218825 19.8112531 -5.06640625 19.43359375 C-7.76631287 17.63365601 -9.60829275 16.34982075 -11.06640625 13.43359375 C-11.75212054 6.46216518 -11.75212054 6.46216518 -9.06640625 2.43359375 C-5.71397384 0.19863881 -3.9372435 -0.24561254 0 0 Z " fill="#0A304A" transform="translate(681.06640625,589.56640625)"/>
<path d="M0 0 C2.97717008 1.98478006 4.62826444 3.36831119 5.44140625 6.9375 C5.65307376 10.54267571 5.15689994 12.69273762 3.5 15.9375 C0.13558638 18.71314123 -2.67736968 19.30077945 -7 19 C-9.96218928 17.77648704 -11.44338765 16.76865515 -13.3125 14.1875 C-14.24084633 11.23367076 -14.37765935 9.084218 -14 6 C-10.24483925 0.36725887 -6.74599262 -1.10928368 0 0 Z " fill="#0A324B" transform="translate(812,590)"/>
<path d="M0 0 C5.61 0 11.22 0 17 0 C17 20.79 17 41.58 17 63 C11.39 63 5.78 63 0 63 C0 42.21 0 21.42 0 0 Z M2 2 C2 21.8 2 41.6 2 62 C6.29 62 10.58 62 15 62 C15 42.2 15 22.4 15 2 C10.71 2 6.42 2 2 2 Z " fill="#273A50" transform="translate(671,617)"/>
<path d="M0 0 C5.61 0 11.22 0 17 0 C17 20.79 17 41.58 17 63 C11.39 63 5.78 63 0 63 C0 42.21 0 21.42 0 0 Z M2 2 C2 21.8 2 41.6 2 62 C6.29 62 10.58 62 15 62 C15 42.2 15 22.4 15 2 C10.71 2 6.42 2 2 2 Z " fill="#2C4054" transform="translate(592,617)"/>
<path d="M0 0 C25.74 0 51.48 0 78 0 C78 1.98 78 3.96 78 6 C77.505 4.02 77.505 4.02 77 2 C52.25 2 27.5 2 2 2 C2 11.24 2 20.48 2 30 C14.87 30 27.74 30 41 30 C41 30.33 41 30.66 41 31 C27.47 31 13.94 31 0 31 C0 20.77 0 10.54 0 0 Z " fill="#233549" transform="translate(655,452)"/>
<path d="M0 0 C12.41411043 0.72436459 12.41411043 0.72436459 17 4 C19.10084426 9.23710461 20 14.37352258 20 20 C12.45495561 18.37657856 7.16410808 15.83544213 2 10 C0.00056684 6.50099197 -0.05263076 3.96046501 0 0 Z " fill="#5A98C5" transform="translate(165,513)"/>
<path d="M0 0 C4.07376031 1.61010527 6.76507069 4.53822271 9.75 7.625 C10.25660156 8.140625 10.76320313 8.65625 11.28515625 9.1875 C12.52803902 10.45383339 13.76465276 11.7263144 15 13 C13 15 13 15 9.8125 15.3125 C2.68289313 14.72810599 -1.86114941 11.63749932 -7 7 C-4.66666667 4.66666667 -2.33333333 2.33333333 0 0 Z " fill="#256482" transform="translate(273,674)"/>
<path d="M0 0 C4.01112541 1.55477109 6.07181964 4.14228789 8.75 7.4375 C9.54921875 8.40558594 10.3484375 9.37367188 11.171875 10.37109375 C13 13 13 13 13 16 C10.5 18.6875 10.5 18.6875 8 21 C3.17789442 18.94957476 1.01754703 15.75334079 -1 11 C-1.54817235 7.16888438 -1.75542026 3.51084052 0 0 Z " fill="#296A87" transform="translate(241,637)"/>
<path d="M0 0 C0.99 0 1.98 0 3 0 C3.19335938 0.81984375 3.38671875 1.6396875 3.5859375 2.484375 C3.84632813 3.56203125 4.10671875 4.6396875 4.375 5.75 C4.63023437 6.81734375 4.88546875 7.8846875 5.1484375 8.984375 C5.87800234 11.92795588 5.87800234 11.92795588 7.1015625 14.203125 C8 16 8 16 8 19 C6.71484375 20.3515625 6.71484375 20.3515625 4.9375 21.625 C4.36902344 22.05039062 3.80054688 22.47578125 3.21484375 22.9140625 C0.21305423 24.38583937 -2.69884201 24.64333227 -6 25 C-5.65066406 23.94941406 -5.30132812 22.89882813 -4.94140625 21.81640625 C-2.56494911 14.53357516 -0.41271511 7.70401545 0 0 Z " fill="#79D5EC" transform="translate(392,322)"/>
<path d="M0 0 C7.66108947 1.27684824 14.0160021 4.28650247 19.125 10.3125 C21 13 21 13 21 14 C16.05 13.67 11.1 13.34 6 13 C4.02 8.71 2.04 4.42 0 0 Z " fill="#5F9DCB" transform="translate(363,233)"/>
<path d="M0 0 C4.25742137 0.47304682 6.25705098 2.8863822 9 6 C9.96070434 8.88211302 10.10581883 10.69850044 10.0625 13.6875 C10.05347656 14.49574219 10.04445313 15.30398438 10.03515625 16.13671875 C10.02355469 16.75160156 10.01195312 17.36648438 10 18 C9.67 18 9.34 18 9 18 C8.34 14.37 7.68 10.74 7 7 C6.34 7 5.68 7 5 7 C4.773125 8.11375 4.54625 9.2275 4.3125 10.375 C3 14 3 14 0.5625 15.5 C-2 16 -2 16 -5 15 C-7 12 -7 12 -6.75 9.4375 C-6 7 -6 7 -4 5 C-1.375 4.875 -1.375 4.875 1 5 C0.67 3.35 0.34 1.7 0 0 Z " fill="#081F38" transform="translate(354,314)"/>
<path d="M0 0 C2 1 2 1 3.3984375 4.16015625 C4 8 4 8 2.2265625 11.30859375 C1.38245222 12.37032621 0.51427143 13.41329577 -0.375 14.4375 C-0.81328125 14.97826172 -1.2515625 15.51902344 -1.703125 16.07617188 C-2.7817148 17.40096152 -3.88822745 18.70293202 -5 20 C-7.62187494 18.95125002 -8.79371361 18.35068687 -10.25 15.875 C-10.4975 15.25625 -10.745 14.6375 -11 14 C-9.35504034 11.85349184 -7.70907674 9.70776711 -6.0625 7.5625 C-5.59392578 6.95083984 -5.12535156 6.33917969 -4.64257812 5.70898438 C-1.11328125 1.11328125 -1.11328125 1.11328125 0 0 Z " fill="#F3614B" transform="translate(249,601)"/>
<path d="M0 0 C6.95475974 1.39095195 12.18200227 5.06522396 18 9 C16 10 16 10 13 10 C13 10.66 13 11.32 13 12 C15.13360759 13.69310153 17.26430351 15.26479731 19.5 16.8125 C20.13695801 17.26028809 20.77391602 17.70807617 21.43017578 18.16943359 C25.86389566 21.26684044 30.36132172 24.21679303 35 27 C34.01 27.495 34.01 27.495 33 28 C30.48358849 26.68962474 28.13993555 25.32853092 25.75 23.8125 C25.04141846 23.36632324 24.33283691 22.92014648 23.6027832 22.46044922 C15.356898 17.12968321 5.29686714 10.43781643 0 2 C0 1.34 0 0.68 0 0 Z " fill="#0A2942" transform="translate(301,438)"/>
<path d="M0 0 C5.65360454 1.31479175 7.95985828 3.20947365 11 8 C10.8125 11.375 10.8125 11.375 10 14 C7.66666667 11.66666667 5.33333333 9.33333333 3 7 C1.35008418 6.29289322 -0.31562256 5.62056011 -2 5 C-1.34 3.35 -0.68 1.7 0 0 Z " fill="#0D334D" transform="translate(455,305)"/>
<path d="M0 0 C3.63 1.98 7.26 3.96 11 6 C11 6.99 11 7.98 11 9 C8.5 10.6875 8.5 10.6875 6 12 C1.83952754 7.83952754 1.03270746 6.19624477 0 0 Z " fill="#1F354E" transform="translate(283,596)"/>
<path d="M0 0 C2.93453261 0.36681658 3.86437246 0.86437246 6 3 C5.46428571 6.53571429 5.46428571 6.53571429 4 8 C1.5625 8.1875 1.5625 8.1875 -1 8 C-1.66 7.34 -2.32 6.68 -3 6 C-2.63318342 3.06546739 -2.13562754 2.13562754 0 0 Z " fill="#EAEEF0" transform="translate(454,312)"/>
<path d="M0 0 C2.625 0.375 2.625 0.375 5 1 C5.625 3.375 5.625 3.375 6 6 C4 8 4 8 1.4375 8.1875 C-1 8 -1 8 -2 7 C-2.1875 4.5625 -2.1875 4.5625 -2 2 C-1.34 1.34 -0.68 0.68 0 0 Z " fill="#F1F4F5" transform="translate(351,320)"/>
<path d="M0 0 C4.91935902 4.11619836 9.52647956 8.40410362 14 13 C12 15 12 15 8.5 15.25 C5 15 5 15 3 13 C4.65 13 6.3 13 8 13 C7.43337571 9.37679679 6.10912999 7.82534347 3.4375 5.375 C2.25665005 4.28681232 1.10189664 3.16806798 0 2 C0 1.34 0 0.68 0 0 Z " fill="#2C6D8A" transform="translate(274,674)"/>
<path d="M0 0 C0.66 0 1.32 0 2 0 C4.67927341 4.01891012 4.15601248 6.24161923 4 11 C1.5625 10.375 1.5625 10.375 -1 9 C-1.9375 6.0625 -1.9375 6.0625 -2 3 C-1.34 2.01 -0.68 1.02 0 0 Z " fill="#2B6D8C" transform="translate(401,351)"/>
<path d="M0 0 C0.03867187 0.97839844 0.03867187 0.97839844 0.078125 1.9765625 C0.45528512 7.78825709 1.23243047 11.34594352 5 16 C5.86625 17.175625 5.86625 17.175625 6.75 18.375 C7.1625 18.91125 7.575 19.4475 8 20 C4.17387297 18.49687867 2.29908033 16.37198449 0 13 C-1.50312916 9.31733355 -2 7.01797629 -2 3 C-3.98 3.33 -5.96 3.66 -8 4 C-7 2 -7 2 -4 0.875 C-1 0 -1 0 0 0 Z " fill="#7CDAEE" transform="translate(359,373)"/>
<path d="M0 0 C0 4.30269952 -2.2009571 5.8677377 -5 9 C-7 11 -9 13 -11 15 C-11.99 14.67 -12.98 14.34 -14 14 C-9.38 9.38 -4.76 4.76 0 0 Z " fill="#023755" transform="translate(298,639)"/>
<path d="M0 0 C0.99 0 1.98 0 3 0 C3 5.61 3 11.22 3 17 C2.67 17 2.34 17 2 17 C2 15.35 2 13.7 2 12 C1.34 12 0.68 12 0 12 C0 8.04 0 4.08 0 0 Z " fill="#6DC4DE" transform="translate(279,321)"/>
<path d="M0 0 C0.66 0 1.32 0 2 0 C4.99644931 3.11630728 5.41316921 5.80835152 6 10 C6.63305821 12.01089078 7.29094062 14.01463373 8 16 C3.46238829 11.82539722 0.76420796 6.11366368 0 0 Z " fill="#061D36" transform="translate(274,458)"/>
<path d="M0 0 C1.32 0.66 2.64 1.32 4 2 C2.54462432 2.83848804 1.08559627 3.67063934 -0.375 4.5 C-1.59316406 5.19609375 -1.59316406 5.19609375 -2.8359375 5.90625 C-5 7 -5 7 -7 7 C-6.34 5.02 -5.68 3.04 -5 1 C-3.68 1 -2.36 1 -1 1 C-0.67 0.67 -0.34 0.34 0 0 Z " fill="#DF4F36" transform="translate(150,627)"/>
<path d="M0 0 C1.29608947 0.93137592 2.58671632 1.8703566 3.875 2.8125 C4.59429687 3.33457031 5.31359375 3.85664063 6.0546875 4.39453125 C8 6 8 6 10 9 C7.5 8 7.5 8 5 7 C4.113125 6.690625 3.22625 6.38125 2.3125 6.0625 C0 5 0 5 -2 2 C-1.34 1.34 -0.68 0.68 0 0 Z " fill="#192C49" transform="translate(413,377)"/>
<path d="M0 0 C-0.33 2.97 -0.66 5.94 -1 9 C-1.33 9 -1.66 9 -2 9 C-2.33 6.69 -2.66 4.38 -3 2 C-3.886875 2.33 -4.77375 2.66 -5.6875 3 C-8.70923347 3.91222143 -10.88373706 4.18330958 -14 4 C-11.36711169 2.57385216 -8.65544851 1.41456868 -5.875 0.3125 C-5.19179688 0.04050781 -4.50859375 -0.23148437 -3.8046875 -0.51171875 C-2 -1 -2 -1 0 0 Z " fill="#041D36" transform="translate(361,372)"/>
<path d="M0 0 C0.66 0.33 1.32 0.66 2 1 C1.34 3.97 0.68 6.94 0 10 C-0.33 10 -0.66 10 -1 10 C-1 8.35 -1 6.7 -1 5 C-2.32 4.67 -3.64 4.34 -5 4 C-3.35 2.68 -1.7 1.36 0 0 Z " fill="#E13D26" transform="translate(382,658)"/>
<path d="M0 0 C0 0.99 0 1.98 0 3 C2.31 3.33 4.62 3.66 7 4 C7 4.33 7 4.66 7 5 C1.06 5.495 1.06 5.495 -5 6 C-3.35 4.02 -1.7 2.04 0 0 Z " fill="#F7631B" transform="translate(144,711)"/>
<path d="M0 0 C0.66 0 1.32 0 2 0 C2.391875 0.7425 2.78375 1.485 3.1875 2.25 C5.61481419 5.93282152 8.09748784 7.01192777 12 9 C11.01 9.33 10.02 9.66 9 10 C7.02734375 8.890625 7.02734375 8.890625 4.9375 7.25 C4.24527344 6.71890625 3.55304688 6.1878125 2.83984375 5.640625 C1 4 1 4 -1 1 C-0.67 0.67 -0.34 0.34 0 0 Z " fill="#0C2038" transform="translate(163,528)"/>
<path d="M0 0 C0.99 0.33 1.98 0.66 3 1 C1.576875 1.37125 1.576875 1.37125 0.125 1.75 C-3.43303673 3.17321469 -3.55234022 3.69106337 -5 7 C-7.125 8.25 -7.125 8.25 -9 9 C-7.27592413 4.61144323 -4.17026127 2.08513063 0 0 Z " fill="#84E3F6" transform="translate(226,253)"/>
<path d="M0 0 C2.875 -0.125 2.875 -0.125 6 0 C6.66 0.66 7.32 1.32 8 2 C6.02 2 4.04 2 2 2 C2 3.65 2 5.3 2 7 C0 5 0 5 -0.125 2.375 C-0.08375 1.59125 -0.0425 0.8075 0 0 Z " fill="#62A2D1" transform="translate(165,513)"/>
<path d="M0 0 C0.33 0.66 0.66 1.32 1 2 C0.0625 4.625 0.0625 4.625 -1 7 C-1.66 7 -2.32 7 -3 7 C-3.66 8.65 -4.32 10.3 -5 12 C-5.33 11.34 -5.66 10.68 -6 10 C-4.78515625 7.6171875 -4.78515625 7.6171875 -3.0625 4.875 C-2.21365234 3.50988281 -2.21365234 3.50988281 -1.34765625 2.1171875 C-0.90292969 1.41851563 -0.45820313 0.71984375 0 0 Z " fill="#081C34" transform="translate(149,603)"/>
<path d="M0 0 C0.33 0 0.66 0 1 0 C1.05395478 1.62463842 1.09277195 3.24978541 1.125 4.875 C1.14820313 5.77992188 1.17140625 6.68484375 1.1953125 7.6171875 C1 10 1 10 -1 12 C-1.2226746 10.56465159 -1.42761906 9.12654475 -1.625 7.6875 C-1.74101562 6.88699219 -1.85703125 6.08648437 -1.9765625 5.26171875 C-2 3 -2 3 0 0 Z " fill="#173F59" transform="translate(211,393)"/>
<path d="M0 0 C0.99 0 1.98 0 3 0 C2.8125 1.8125 2.8125 1.8125 2 4 C-0.26546849 5.56840126 -2.5414529 6.77072645 -5 8 C-3.63029745 5.04987143 -2.17390875 2.4347778 0 0 Z " fill="#E03E2B" transform="translate(312,637)"/>
<path d="M0 0 C2 2 2 2 2 3 C4.31 3.33 6.62 3.66 9 4 C9 4.33 9 4.66 9 5 C7.56344146 5.08131463 6.1255517 5.13933559 4.6875 5.1875 C3.48673828 5.23970703 3.48673828 5.23970703 2.26171875 5.29296875 C-0.47851584 4.93801608 -1.29171079 4.10633718 -3 2 C-2.01 1.34 -1.02 0.68 0 0 Z " fill="#72ABC0" transform="translate(276,584)"/>
<path d="M0 0 C0.66 0.33 1.32 0.66 2 1 C3.67654729 0.72057545 5.34608154 0.39171753 7 0 C3.87567603 2.52349243 0.61939504 4.27256146 -3 6 C-1.125 1.125 -1.125 1.125 0 0 Z " fill="#F8621C" transform="translate(110,791)"/>
<path d="M0 0 C0.66 0.33 1.32 0.66 2 1 C0.84826645 3.46800047 -0.04783565 5.04783565 -2 7 C-2.99 6.67 -3.98 6.34 -5 6 C-3.35 4.02 -1.7 2.04 0 0 Z " fill="#123653" transform="translate(361,725)"/>
<path d="M0 0 C0.66 1.32 1.32 2.64 2 4 C0.68 5.32 -0.64 6.64 -2 8 C-1.34 6.35 -0.68 4.7 0 3 C-1.32 3.33 -2.64 3.66 -4 4 C-2.68 2.68 -1.36 1.36 0 0 Z " fill="#DE3B27" transform="translate(314,614)"/>
<path d="M0 0 C0.66 0.33 1.32 0.66 2 1 C2.625 3.5625 2.625 3.5625 3 6 C1.02 5.34 -0.96 4.68 -3 4 C-2.01 2.68 -1.02 1.36 0 0 Z " fill="#EB6751" transform="translate(249,601)"/>
<path d="M0 0 C0.66 0.33 1.32 0.66 2 1 C1.125 4.875 1.125 4.875 0 6 C-1.99958364 6.04080783 -4.00045254 6.04254356 -6 6 C-4 4 -4 4 -1 3 C-0.67 2.01 -0.34 1.02 0 0 Z " fill="#082A44" transform="translate(469,419)"/>
<path d="M0 0 C0.99 0 1.98 0 3 0 C3 3.3 3 6.6 3 10 C2.01 10.495 2.01 10.495 1 11 C0.67 7.37 0.34 3.74 0 0 Z " fill="#6EC4DF" transform="translate(392,322)"/>
<path d="M0 0 C0.66 0.33 1.32 0.66 2 1 C0.75 3.5 0.75 3.5 -1 6 C-2.32 6 -3.64 6 -5 6 C-5 5.34 -5 4.68 -5 4 C-3.37373596 2.61767557 -1.7074998 1.28062485 0 0 Z " fill="#DC3B26" transform="translate(282,638)"/>
<path d="M0 0 C0.66 0.33 1.32 0.66 2 1 C1.34 2.32 0.68 3.64 0 5 C-0.66 5 -1.32 5 -2 5 C-2 6.65 -2 8.3 -2 10 C-2.33 10 -2.66 10 -3 10 C-3.36923077 3.47692308 -3.36923077 3.47692308 -1.5 1.0625 C-1.005 0.711875 -0.51 0.36125 0 0 Z " fill="#061B36" transform="translate(802,591)"/>
</svg>
